<svg xmlns="http://www.w3.org/2000/svg" viewBox="0 0 28.08 28.08"><defs><style>.cls-1{fill:#fff;}</style></defs><g id="Layer_2" data-name="Layer 2"><g id="Layer_1-2" data-name="Layer 1"><path class="cls-1" d="M16.87,14.26l7.53,12,.8-.8a1.58,1.58,0,0,0,.42-1.56l-4-14.07C26.24,5.4,28.72,2.47,27.94.14c-2.33-.78-5.26,1.7-9.67,6.32l-14.08-4a1.6,1.6,0,0,0-1.55.42l-.8.8,12,7.53c-1.3,1.4-2.69,2.9-4.21,4.49-.83.88-1.54,1.7-2.18,2.5L1.7,17.55a1.52,1.52,0,0,0-1.51.83L0,18.76l5,3H5l0,0a1,1,0,0,0,1.37,1.36l0,0h0l3,5,.38-.19a1.51,1.51,0,0,0,.83-1.51l-.64-5.73c.79-.63,1.62-1.35,2.49-2.18Q14.77,16.21,16.87,14.26Z"/></g></g></svg>