<svg xmlns="http://www.w3.org/2000/svg" viewBox="0 0 33.65 37.43"><defs></defs><g id="Layer_2" data-name="Layer 2"><g id="Layer_1-2" data-name="Layer 1"><path d="M28.23,11.81,32,34.39a2.24,2.24,0,0,1-.65,1.72l-1.6,1.32L22.33,16.64c-4.13,3.23-8.72,6.54-12.08,8.65l.26,6.44a.87.87,0,0,1-.3.6l-.61.51L7.44,26.92a4.16,4.16,0,0,1-1.82.62l-.24-.29a4.14,4.14,0,0,1,.94-1.68L.88,22.38l.61-.51a1,1,0,0,1,.65-.19L8.43,23.1c2.68-2.92,6.76-6.84,10.68-10.32L0,1.73,1.59.4A2.18,2.18,0,0,1,3.4.07L24.93,7.85C31,3,32.41,3.26,33.25,4.27h0C34.09,5.28,34.08,6.7,28.23,11.81Z" fill="#0b4f7f" id="__1_8PnEsne99B"></path></g></g></svg>